<svg width="192" height="192" viewBox="0 0 192 192" fill="none" xmlns="http://www.w3.org/2000/svg">
<g clip-path="url(#clip0_2004_2)">
<path d="M33.0891 148.62C43.4562 163.426 60.0789 172.948 79.3005 175.091C98.5221 177.234 118.768 171.823 135.584 160.048C152.401 148.273 164.41 131.099 168.971 112.303C173.531 93.5079 170.269 74.631 159.902 59.8252L96.4954 104.223L33.0891 148.62Z" fill="#6E5538"/>
<ellipse cx="96.9778" cy="104.912" rx="16.8271" ry="77.4048" transform="rotate(55 96.9778 104.912)" fill="#74E674"/>
<ellipse cx="96.7294" cy="104.508" rx="15.2885" ry="73.1978" transform="rotate(55 96.7294 104.508)" fill="#67C767"/>
<path d="M159.902 42.8252C149.535 28.0194 132.912 18.4977 113.69 16.3546C94.4686 14.2115 74.2227 19.6226 57.4063 31.3975C40.5899 43.1725 28.5806 60.3467 24.0202 79.1421C19.4598 97.9374 22.7219 116.814 33.089 131.62L96.4954 87.2227L159.902 42.8252Z" fill="#6E5538"/>
<ellipse cx="96.0129" cy="86.5333" rx="16.8271" ry="77.4048" transform="rotate(-125 96.0129 86.5333)" fill="#6E5538"/>
</g>
<defs>
<clipPath id="clip0_2004_2">
<rect width="192" height="192" fill="white"/>
</clipPath>
</defs>
</svg>
